<svg xmlns="http://www.w3.org/2000/svg" width="246" height="35" viewBox="0 0 246 35"><rect class="svg__rect" x="0" y="0" width="129.13" height="35" fill="#FFCCCC"/><rect class="svg__rect" x="127.13" y="0" width="118.87" height="35" fill="#FF0000"/><path class="svg__text" d="M13.86 17.73L13.86 17.73Q13.86 16.54 14.41 15.53Q14.96 14.52 15.93 13.93Q16.89 13.35 18.02 13.35Q19.14 13.35 20.11 13.93Q21.08 14.52 21.63 15.53Q22.17 16.54 22.17 17.73Q22.17 18.91 21.63 19.93Q21.08 20.94 20.12 21.53Q19.16 22.12 18.02 22.12L18.02 22.12Q16.89 22.12 15.93 21.53Q14.96 20.95 14.41 19.93Q13.86 18.92 13.86 17.73ZM15.03 15.89Q14.57 16.73 14.57 17.73Q14.57 18.72 15.03 19.57Q15.48 20.41 16.28 20.90Q17.08 21.39 18.02 21.39Q18.96 21.39 19.76 20.89Q20.57 20.39 21.01 19.55Q21.46 18.71 21.46 17.73L21.46 17.73Q21.46 16.76 21.02 15.92Q20.58 15.09 19.78 14.58Q18.98 14.08 18.02 14.08L18.02 14.08Q17.09 14.08 16.29 14.56Q15.49 15.04 15.03 15.89ZM15.89 18.04L15.89 18.04L15.89 17.38Q15.89 16.36 16.45 15.74Q17.01 15.12 17.94 15.12L17.94 15.12Q18.89 15.12 19.40 15.60Q19.91 16.08 19.91 16.96L19.91 16.96L18.99 16.96Q18.99 16.39 18.72 16.15Q18.45 15.91 17.94 15.91L17.94 15.91Q17.40 15.91 17.10 16.30Q16.80 16.70 16.80 17.39L16.80 17.39L16.80 18.08Q16.80 18.77 17.10 19.16Q17.40 19.56 17.94 19.56L17.94 19.56Q18.46 19.56 18.72 19.32Q18.99 19.08 18.99 18.51L18.99 18.51L19.90 18.51Q19.90 19.40 19.39 19.87Q18.88 20.35 17.94 20.35Q17.00 20.35 16.45 19.72Q15.89 19.10 15.89 18.04ZM26.33 18.19L26.33 18.19L26.33 17.39Q26.33 16.19 26.76 15.27Q27.19 14.35 27.99 13.85Q28.79 13.35 29.84 13.35L29.84 13.35Q31.25 13.35 32.11 14.12Q32.97 14.89 33.11 16.29L33.11 16.29L31.64 16.29Q31.53 15.37 31.10 14.96Q30.67 14.55 29.84 14.55L29.84 14.55Q28.87 14.55 28.35 15.26Q27.83 15.96 27.82 17.33L27.82 17.33L27.82 18.09Q27.82 19.47 28.32 20.20Q28.81 20.92 29.77 20.92L29.77 20.92Q30.64 20.92 31.08 20.53Q31.52 20.14 31.64 19.22L31.64 19.22L33.11 19.22Q32.98 20.59 32.11 21.35Q31.23 22.12 29.77 22.12L29.77 22.12Q28.75 22.12 27.97 21.63Q27.20 21.15 26.77 20.26Q26.35 19.37 26.33 18.19ZM37.16 18.00L37.16 18.00L37.16 17.52Q37.16 16.28 37.60 15.32Q38.04 14.37 38.85 13.86Q39.65 13.35 40.70 13.35Q41.74 13.35 42.54 13.85Q43.35 14.35 43.79 15.29Q44.23 16.23 44.23 17.48L44.23 17.48L44.23 17.96Q44.23 19.21 43.80 20.16Q43.37 21.10 42.56 21.61Q41.76 22.12 40.71 22.12L40.71 22.12Q39.67 22.12 38.86 21.61Q38.05 21.10 37.60 20.17Q37.16 19.23 37.16 18.00ZM38.64 17.46L38.64 17.96Q38.64 19.36 39.19 20.13Q39.73 20.90 40.71 20.90L40.71 20.90Q41.69 20.90 42.22 20.15Q42.75 19.40 42.75 17.96L42.75 17.96L42.75 17.51Q42.75 16.09 42.22 15.34Q41.68 14.58 40.70 14.58L40.70 14.58Q39.73 14.58 39.19 15.33Q38.65 16.09 38.64 17.46L38.64 17.46ZM50.18 22L48.70 22L48.70 13.47L51.96 13.47Q53.39 13.47 54.23 14.21Q55.07 14.96 55.07 16.18L55.07 16.18Q55.07 17.44 54.25 18.13Q53.43 18.83 51.95 18.83L51.95 18.83L50.18 18.83L50.18 22ZM50.18 14.66L50.18 17.64L51.96 17.64Q52.75 17.64 53.17 17.27Q53.59 16.90 53.59 16.19L53.59 16.19Q53.59 15.50 53.16 15.09Q52.74 14.68 52.00 14.66L52.00 14.66L50.18 14.66ZM61.40 18.86L58.53 13.47L60.18 13.47L62.14 17.51L64.10 13.47L65.74 13.47L62.89 18.86L62.89 22L61.40 22L61.40 18.86ZM71.14 22L69.66 22L69.66 13.47L72.66 13.47Q74.14 13.47 74.94 14.13Q75.74 14.79 75.74 16.05L75.74 16.05Q75.74 16.90 75.33 17.48Q74.91 18.06 74.18 18.37L74.18 18.37L76.09 21.92L76.09 22L74.50 22L72.79 18.71L71.14 18.71L71.14 22ZM71.14 14.66L71.14 17.52L72.66 17.52Q73.41 17.52 73.84 17.15Q74.26 16.77 74.26 16.11L74.26 16.11Q74.26 15.43 73.87 15.05Q73.48 14.68 72.71 14.66L72.71 14.66L71.14 14.66ZM81.70 22L80.22 22L80.22 13.47L81.70 13.47L81.70 22ZM86.26 18.13L86.26 18.13L86.26 17.46Q86.26 15.53 87.19 14.44Q88.12 13.35 89.77 13.35L89.77 13.35Q91.20 13.35 92.04 14.05Q92.87 14.76 93.04 16.08L93.04 16.08L91.59 16.08Q91.34 14.54 89.80 14.54L89.80 14.54Q88.81 14.54 88.29 15.26Q87.77 15.98 87.75 17.37L87.75 17.37L87.75 18.02Q87.75 19.40 88.34 20.17Q88.92 20.93 89.96 20.93L89.96 20.93Q91.09 20.93 91.57 20.42L91.57 20.42L91.57 18.75L89.81 18.75L89.81 17.62L93.05 17.62L93.05 20.89Q92.59 21.50 91.77 21.81Q90.95 22.12 89.90 22.12L89.90 22.12Q88.83 22.12 88.00 21.63Q87.18 21.14 86.73 20.24Q86.28 19.33 86.26 18.13ZM99.15 22L97.67 22L97.67 13.47L99.15 13.47L99.15 17.02L102.96 17.02L102.96 13.47L104.44 13.47L104.44 22L102.96 22L102.96 18.21L99.15 18.21L99.15 22ZM110.86 14.66L108.22 14.66L108.22 13.47L114.99 13.47L114.99 14.66L112.33 14.66L112.33 22L110.86 22L110.86 14.66Z" fill="#FF0000"/><path class="svg__text" d="M143.70 22L141.32 22L141.32 13.60L143.70 13.60L143.70 16.76L146.94 16.76L146.94 13.60L149.31 13.60L149.31 22L146.94 22L146.94 18.72L143.70 18.72L143.70 22ZM156.27 15.48L153.68 15.48L153.68 13.60L161.20 13.60L161.20 15.48L158.64 15.48L158.64 22L156.27 22L156.27 15.48ZM167.95 22L165.58 22L165.58 13.60L167.95 13.60L167.95 16.76L171.19 16.76L171.19 13.60L173.57 13.60L173.57 22L171.19 22L171.19 18.72L167.95 18.72L167.95 22ZM179.53 15.44L177.96 15.44L177.96 13.60L181.90 13.60L181.90 22L179.53 22L179.53 15.44ZM187.93 16.17L186.17 15.19Q186.66 14.37 187.55 13.90Q188.43 13.43 189.65 13.43L189.65 13.43Q190.61 13.43 191.34 13.74Q192.08 14.05 192.49 14.64Q192.91 15.22 192.91 15.99L192.91 15.99Q192.91 16.67 192.61 17.28Q192.32 17.89 191.48 18.65L191.48 18.65L189.90 20.11L193.14 20.11L193.14 22L186.59 22L186.59 20.51L189.74 17.57Q190.20 17.14 190.35 16.83Q190.51 16.53 190.51 16.22L190.51 16.22Q190.51 15.81 190.23 15.58Q189.96 15.35 189.43 15.35L189.43 15.35Q188.96 15.35 188.57 15.56Q188.18 15.77 187.93 16.17L187.93 16.17ZM197.00 21.34L197.00 21.34L197.85 19.55Q198.36 19.88 198.97 20.07Q199.57 20.25 200.18 20.25L200.18 20.25Q200.79 20.25 201.16 20.01Q201.52 19.78 201.52 19.36L201.52 19.36Q201.52 18.94 201.17 18.72Q200.81 18.51 199.89 18.51L199.89 18.51L197.61 18.51L198.04 13.60L203.39 13.60L203.39 15.44L200.00 15.44L199.89 16.66L200.46 16.66Q202.22 16.66 203.07 17.38Q203.91 18.10 203.91 19.30L203.91 19.30Q203.91 20.08 203.51 20.73Q203.11 21.39 202.29 21.78Q201.46 22.17 200.25 22.17L200.25 22.17Q199.36 22.17 198.49 21.95Q197.63 21.74 197.00 21.34ZM209.31 15.44L207.75 15.44L207.75 13.60L211.68 13.60L211.68 22L209.31 22L209.31 15.44ZM216.21 16.30L216.21 16.30Q216.21 15.45 216.65 14.80Q217.09 14.14 217.84 13.79Q218.59 13.43 219.50 13.43L219.50 13.43Q221.31 13.43 222.36 14.50Q223.40 15.57 223.40 17.57L223.40 17.57Q223.40 19.01 222.84 20.05Q222.28 21.09 221.27 21.63Q220.26 22.17 218.93 22.17L218.93 22.17Q218.22 22.17 217.57 22.01Q216.92 21.84 216.46 21.55L216.46 21.55L217.33 19.85Q217.94 20.28 218.87 20.28L218.87 20.28Q219.77 20.28 220.33 19.79Q220.89 19.29 220.99 18.34L220.99 18.34Q220.27 18.95 219.10 18.95L219.10 18.95Q218.31 18.95 217.65 18.62Q216.99 18.29 216.60 17.68Q216.21 17.08 216.21 16.30ZM218.52 16.19L218.52 16.19Q218.52 16.67 218.83 16.96Q219.15 17.25 219.67 17.25L219.67 17.25Q220.19 17.25 220.51 16.96Q220.83 16.66 220.83 16.18L220.83 16.18Q220.83 15.71 220.51 15.42Q220.20 15.12 219.66 15.12L219.66 15.12Q219.15 15.12 218.83 15.41Q218.52 15.70 218.52 16.19ZM228.99 16.17L227.22 15.19Q227.71 14.37 228.60 13.90Q229.49 13.43 230.70 13.43L230.70 13.43Q231.66 13.43 232.40 13.74Q233.13 14.05 233.55 14.64Q233.97 15.22 233.97 15.99L233.97 15.99Q233.97 16.67 233.67 17.28Q233.37 17.89 232.54 18.65L232.54 18.65L230.95 20.11L234.19 20.11L234.19 22L227.65 22L227.65 20.51L230.80 17.57Q231.25 17.14 231.41 16.83Q231.56 16.53 231.56 16.22L231.56 16.22Q231.56 15.81 231.29 15.58Q231.01 15.35 230.49 15.35L230.49 15.35Q230.02 15.35 229.63 15.56Q229.24 15.77 228.99 16.17L228.99 16.17Z" fill="#FFFFFF" x="140.13"/></svg>